<?xml version="1.0" standalone="no"?>
<!DOCTYPE svg PUBLIC "-//W3C//DTD SVG 20010904//EN"
 "http://www.w3.org/TR/2001/REC-SVG-20010904/DTD/svg10.dtd">
<svg version="1.0" xmlns="http://www.w3.org/2000/svg"
 width="164.000000pt" height="164.000000pt" viewBox="0 0 164.000000 164.000000"
 preserveAspectRatio="xMidYMid meet">
<metadata>
Created by potrace 1.11, written by Peter Selinger 2001-2013
</metadata>
<g transform="translate(0.000000,164.000000) scale(0.100000,-0.100000)"
fill="#000000" stroke="none">
<path d="M755 1630 c-3 -5 -14 -10 -24 -10 -9 0 -35 -15 -57 -33 -22 -20 -68
-43 -109 -56 -198 -64 -360 -205 -455 -396 -28 -55 -50 -109 -50 -120 0 -12
-4 -25 -9 -30 -24 -26 -31 -255 -11 -345 6 -30 13 -95 14 -145 2 -91 12 -125
53 -171 23 -27 83 -64 104 -64 8 0 26 -12 40 -26 87 -95 254 -185 399 -217 68
-15 261 -20 273 -8 6 6 25 11 42 11 75 0 229 73 345 165 46 36 96 68 110 72
38 9 88 50 117 96 23 36 26 53 28 137 1 52 8 129 15 170 16 100 7 258 -20 351
-38 126 -121 261 -211 345 -89 81 -234 165 -313 180 -20 3 -58 24 -84 45 -25
22 -54 39 -64 39 -9 0 -20 5 -23 10 -3 6 -28 10 -55 10 -27 0 -52 -4 -55 -10z
m104 -85 c52 -27 81 -71 81 -125 0 -43 -5 -54 -38 -90 -36 -36 -43 -40 -90
-40 -144 0 -190 183 -63 250 44 23 73 25 110 5z m281 -139 c150 -79 280 -231
335 -393 31 -89 46 -220 34 -298 -6 -38 -13 -73 -16 -78 -2 -4 -16 -1 -31 8
-15 8 -43 21 -64 29 l-36 14 10 44 c11 51 -5 174 -33 251 -47 127 -155 249
-273 307 -65 32 -76 43 -56 55 6 3 10 28 10 54 0 26 3 50 6 54 7 7 36 -5 114
-47z m-545 9 c1 -16 5 -44 9 -62 7 -30 5 -32 -56 -64 -81 -42 -203 -165 -239
-239 -54 -110 -74 -204 -66 -300 5 -66 5 -70 -15 -70 -11 0 -38 -10 -59 -22
-21 -12 -41 -19 -44 -17 -2 3 -9 37 -15 77 -30 216 82 481 263 620 62 48 185
114 206 110 7 -2 15 -16 16 -33z m58 -276 l-1 -96 -44 -44 c-51 -51 -88 -124
-88 -173 0 -33 -4 -37 -86 -85 -47 -28 -89 -51 -94 -51 -24 0 -26 118 -4 203
35 135 132 264 242 322 72 37 75 35 75 -76z m374 80 c144 -80 231 -200 263
-362 12 -59 6 -152 -11 -162 -5 -3 -46 17 -92 45 -82 49 -85 51 -89 93 -7 62
-34 112 -90 167 l-48 47 0 97 c0 108 3 111 67 75z m-217 -13 c19 0 43 4 53 8
16 7 17 -1 17 -102 l0 -111 45 -36 c61 -51 89 -99 95 -165 5 -60 9 -63 143
-142 l46 -27 -33 -50 c-19 -28 -36 -55 -38 -62 -2 -7 -39 9 -97 42 -88 50 -95
52 -125 40 -80 -33 -110 -35 -184 -11 l-70 23 -86 -52 c-48 -29 -91 -49 -95
-46 -5 3 -12 18 -16 34 -3 16 -15 37 -26 47 -10 9 -19 22 -19 29 0 11 92 75
107 75 3 0 21 11 40 26 29 22 33 31 33 70 0 65 21 104 84 158 l56 48 0 110 c0
101 1 109 18 102 9 -4 33 -8 52 -8z m-479 -621 c84 -44 91 -163 14 -223 -107
-85 -258 39 -199 163 32 68 116 95 185 60z m1095 -13 c35 -19 58 -63 58 -113
0 -78 -54 -129 -138 -129 -44 0 -53 4 -88 40 -33 36 -38 47 -38 88 0 38 6 55
31 85 44 54 109 64 175 29z m-671 -72 c51 -11 109 -7 157 12 22 8 35 7 60 -6
65 -32 143 -83 142 -92 -1 -15 -105 -73 -159 -90 -82 -25 -181 -29 -255 -9
-75 19 -200 82 -200 99 0 7 19 22 43 34 23 12 58 33 77 47 36 26 41 26 135 5z
m-252 -188 c95 -63 193 -92 311 -92 40 0 86 4 102 9 16 5 49 15 74 22 47 14
97 38 142 70 34 24 35 24 64 -10 14 -17 34 -33 44 -36 31 -10 24 -29 -22 -62
-213 -152 -503 -171 -738 -47 -37 19 -82 48 -101 65 l-34 29 25 18 c14 9 34
27 45 38 27 29 39 29 88 -4z"/>
<path d="M765 924 c-52 -19 -79 -46 -95 -94 -21 -65 12 -141 77 -177 61 -35
159 2 193 72 26 54 25 79 -5 130 -37 64 -106 92 -170 69z m87 -91 c10 -9 18
-28 18 -42 0 -68 -69 -96 -109 -45 -27 34 -26 52 1 81 25 27 64 30 90 6z"/>
</g>
</svg>
